Coordinates
version=1
nRows=35
nColumns=38
inDegrees=no

Units are S.I. units (second, meters, Newtons, ...)
If the header above contains a line with 'inDegrees', this indicates whether rotational values are in degrees (yes) or radians (no).

endheader
time	pelvis_tilt	pelvis_list	pelvis_rotation	pelvis_tx	pelvis_ty	pelvis_tz	hip_flexion_r	hip_adduction_r	hip_rotation_r	knee_angle_r	ankle_angle_r	subtalar_angle_r	mtp_angle_r	hip_flexion_l	hip_adduction_l	hip_rotation_l	knee_angle_l	ankle_angle_l	subtalar_angle_l	mtp_angle_l	lumbar_extension	lumbar_bending	lumbar_rotation	arm_flex_r	arm_add_r	arm_rot_r	elbow_flex_r	pro_sup_r	wrist_flex_r	wrist_dev_r	arm_flex_l	arm_add_l	arm_rot_l	elbow_flex_l	pro_sup_l	wrist_flex_l	wrist_dev_l
21.03	-1.78294	1.44423	0.274131	0.806369	-0.315985	0.929612	0.373476	0.0287835	-0.0134459	0.566527	-0.277253	0	0	-0.249254	-0.140802	0.131431	0	-0.313722	0	0	-0.484136	0.284277	-0.205795	0.347412	-0.324028	0.28369	1.05377	1.54131	0	0	-0.0806751	-0.157591	-0.274692	1.17277	1.5708	0	0
21.04	-1.7918	1.44348	0.282855	0.806194	-0.317982	0.929234	0.379272	0.0285659	-0.015059	0.559302	-0.277079	0	0	-0.250912	-0.141592	0.132087	0	-0.313106	0	0	-0.483267	0.284731	-0.203947	0.338952	-0.326968	0.279673	1.06164	1.54341	0	0	-0.0849794	-0.155642	-0.274841	1.17386	1.5708	0	0
21.05	-1.80763	1.44261	0.298878	0.805979	-0.320027	0.928773	0.385705	0.028379	-0.0166265	0.552178	-0.279852	0	0	-0.251321	-0.142385	0.133326	0	-0.310657	0	0	-0.483485	0.284535	-0.192502	0.318305	-0.337898	0.268166	1.0839	1.51299	0	0	-0.0833625	-0.154713	-0.264447	1.17317	1.5708	0	0
21.06	-1.82042	1.44189	0.31208	0.805791	-0.322046	0.928315	0.391255	0.028507	-0.0177765	0.544451	-0.288691	0	0	-0.251926	-0.143075	0.134719	0	-0.308139	0	0	-0.483197	0.285087	-0.186625	0.301219	-0.339679	0.251509	1.09588	1.57048	0	0	-0.0850198	-0.153949	-0.259037	1.17328	1.5708	0	0
21.07	-1.83011	1.44116	0.322615	0.805693	-0.324047	0.927832	0.395827	0.0287237	-0.0189685	0.536218	-0.295825	0	0	-0.252775	-0.143939	0.13583	0	-0.306355	0	0	-0.48213	0.285853	-0.185251	0.291558	-0.34332	0.249467	1.10355	1.57056	0	0	-0.0892652	-0.153121	-0.257558	1.17451	1.5708	0	0
21.08	-1.83821	1.4406	0.331941	0.805602	-0.32609	0.927387	0.399455	0.0287767	-0.0198855	0.527802	-0.305536	0	0	-0.253672	-0.144701	0.13698	0	-0.304637	0	0	-0.481101	0.286768	-0.184829	0.282845	-0.346061	0.246254	1.11091	1.56767	0	0	-0.0938105	-0.152287	-0.257004	1.17554	1.5708	0	0
21.09	-1.84488	1.44022	0.340046	0.805489	-0.328171	0.926965	0.402439	0.0286812	-0.0207514	0.519914	-0.315011	0	0	-0.254576	-0.145307	0.137866	0	-0.303147	0	0	-0.479799	0.287716	-0.186468	0.276437	-0.347735	0.245456	1.11578	1.56526	0	0	-0.0993745	-0.151328	-0.258487	1.17653	1.5708	0	0
21.1	-1.85286	1.43958	0.349753	0.805375	-0.330281	0.926497	0.405461	0.0287439	-0.0218932	0.512769	-0.323636	0	0	-0.25518	-0.146243	0.138977	0	-0.301572	0	0	-0.47775	0.289032	-0.190256	0.272281	-0.348037	0.246438	1.11841	1.56285	0	0	-0.106375	-0.150141	-0.261875	1.17819	1.5708	0	0
21.11	-1.86102	1.43873	0.360086	0.805279	-0.332388	0.925979	0.408212	0.029035	-0.0227836	0.506392	-0.330854	0	0	-0.255678	-0.147528	0.140248	0	-0.299915	0	0	-0.475811	0.290806	-0.196294	0.269682	-0.347957	0.250926	1.11987	1.56123	0	0	-0.114991	-0.147845	-0.268676	1.18152	1.5708	0	0
21.12	-1.87403	1.43779	0.3753	0.8051	-0.334553	0.925409	0.411422	0.0293051	-0.0228372	0.501471	-0.335998	0	0	-0.255375	-0.148763	0.141362	0	-0.298379	0	0	-0.479345	0.293948	-0.208096	0.268546	-0.346183	0.258428	1.12945	1.55959	0	0	-0.132874	-0.145602	-0.282906	1.19614	1.5708	0	0
21.13	-1.88046	1.43731	0.384302	0.804932	-0.336771	0.924897	0.41288	0.0293602	-0.023272	0.496971	-0.339347	0	0	-0.25616	-0.149915	0.14227	0	-0.297127	0	0	-0.47686	0.295328	-0.211924	0.263266	-0.347461	0.260375	1.1321	1.55632	0	0	-0.1384	-0.144081	-0.28528	1.19529	1.5708	0	0
21.14	-1.89275	1.43715	0.398763	0.804687	-0.339054	0.924296	0.415128	0.029014	-0.0227281	0.495018	-0.337328	0	0	-0.256505	-0.150376	0.142432	0	-0.297673	0	0	-0.475831	0.296075	-0.209717	0.248508	-0.34892	0.246948	1.14441	1.56942	0	0	-0.141132	-0.14396	-0.281214	1.19387	1.5708	0	0
21.15	-1.77027	1.44091	0.280609	0.804785	-0.340409	0.924718	0.397216	0.0301577	-0.026098	0.491639	-0.34408	0	0	-0.275979	-0.153412	0.140321	0	-0.294054	0	0	-0.52044	0.314739	-0.380341	0.410768	-0.276873	0.465969	1.05796	1.55388	0	0	-0.288695	-0.103017	-0.477915	1.30974	1.5708	0	0
21.16	-1.77962	1.44096	0.292805	0.804487	-0.34282	0.924052	0.397932	0.0301392	-0.0250633	0.491766	-0.345138	0	0	-0.276929	-0.154342	0.140523	0	-0.293708	0	0	-0.517509	0.315169	-0.38545	0.405419	-0.277846	0.468518	1.05873	1.55243	0	0	-0.294907	-0.100801	-0.480278	1.30841	1.5708	0	0
21.17	-1.9422	1.43587	0.456317	0.803732	-0.346406	0.922126	0.420773	0.0283583	-0.019797	0.495323	-0.352102	0	0	-0.25602	-0.152522	0.144255	0	-0.291409	0	0	-0.464005	0.295769	-0.177207	0.175548	-0.361753	0.180303	1.18864	1.5708	0	0	-0.125362	-0.147528	-0.237413	1.16782	1.5708	0	0
21.18	-1.95073	1.4361	0.467724	0.803345	-0.348939	0.921463	0.420314	0.028101	-0.0195286	0.497457	-0.354405	0	0	-0.257353	-0.153181	0.143988	0	-0.290549	0	0	-0.461987	0.296121	-0.177456	0.163194	-0.362056	0.173116	1.19584	1.5708	0	0	-0.129229	-0.146911	-0.236386	1.16568	1.5708	0	0
21.19	-1.9603	1.43608	0.480366	0.802954	-0.351516	0.92078	0.419503	0.0280383	-0.0195023	0.499498	-0.355951	0	0	-0.258237	-0.154033	0.144488	0	-0.28924	0	0	-0.459934	0.296547	-0.176977	0.149403	-0.362077	0.163953	1.20471	1.5708	0	0	-0.132448	-0.146581	-0.234068	1.1622	1.5708	0	0
21.2	-1.97401	1.4357	0.497031	0.802569	-0.354119	0.920033	0.419129	0.0279831	-0.0194209	0.501647	-0.355063	0	0	-0.258285	-0.154847	0.145805	0	-0.28782	0	0	-0.457662	0.296839	-0.176141	0.134941	-0.362166	0.154688	1.21423	1.5708	0	0	-0.135504	-0.146014	-0.231774	1.1581	1.5708	0	0
21.21	-1.98906	1.43501	0.515204	0.802181	-0.356748	0.919289	0.418844	0.0280843	-0.0194074	0.50342	-0.351733	0	0	-0.257592	-0.155806	0.148051	0	-0.286397	0	0	-0.455338	0.297257	-0.174268	0.119151	-0.362534	0.144484	1.22417	1.5708	0	0	-0.137981	-0.145237	-0.228994	1.15384	1.5708	0	0
21.22	-2.00481	1.43357	0.533926	0.801714	-0.359438	0.918586	0.419002	0.0289246	-0.0197777	0.504761	-0.347161	0	0	-0.256412	-0.157433	0.149952	0	-0.284651	0	0	-0.452774	0.298103	-0.169675	0.100607	-0.363024	0.131209	1.23513	1.5708	0	0	-0.13898	-0.144652	-0.223845	1.14878	1.5708	0	0
21.23	-2.02687	1.43083	0.557682	0.800984	-0.362209	0.917854	0.421175	0.0311406	-0.0187191	0.506965	-0.338895	0	0	-0.253713	-0.159625	0.150441	0	-0.277821	0	0	-0.45836	0.29932	-0.116313	0.0215457	-0.365267	0.0422154	1.2976	1.5708	0	0	-0.110507	-0.150825	-0.169541	1.13225	1.5708	0	0
21.24	-2.0284	1.42848	0.561234	0.800379	-0.364806	0.917478	0.420322	0.0338959	-0.0206311	0.507758	-0.336575	0	0	-0.252047	-0.162838	0.150012	0.00521891	-0.273552	0	0	-0.457528	0.301781	-0.114254	0.00959017	-0.363285	0.0351378	1.30352	1.5708	0	0	-0.113886	-0.14988	-0.170464	1.13004	1.5708	0	0
21.25	-2.02481	1.4263	0.559013	0.799764	-0.367344	0.917315	0.418848	0.0368238	-0.023461	0.508643	-0.335395	0	0	-0.250532	-0.165897	0.149047	0.0126998	-0.269876	0	0	-0.457521	0.304279	-0.113619	0.00120688	-0.361352	0.0321224	1.30625	1.5708	0	0	-0.118074	-0.148511	-0.173761	1.12795	1.5708	0	0
21.26	-2.02101	1.4241	0.555948	0.799165	-0.369795	0.917244	0.417548	0.0397543	-0.0259046	0.509911	-0.335076	0	0	-0.248536	-0.168537	0.148134	0.0206551	-0.267331	0	0	-0.457196	0.306659	-0.114664	-0.00376753	-0.359757	0.0332948	1.30581	1.5708	0	0	-0.123155	-0.146816	-0.178719	1.12581	1.5708	0	0
21.27	-2.01547	1.42215	0.551034	0.798595	-0.372191	0.917286	0.415606	0.0424861	-0.0283402	0.510686	-0.335637	0	0	-0.246748	-0.17106	0.147646	0.0291783	-0.265099	0	0	-0.456756	0.308918	-0.119175	-0.0041319	-0.358079	0.0396038	1.30187	1.5708	0	0	-0.130123	-0.144712	-0.186826	1.12434	1.5708	0	0
21.28	-1.88841	1.42426	0.435525	0.799452	-0.375357	0.91907	0.422056	0.0428814	-0.221897	0.563143	-0.340725	0	0	-0.263633	-0.180409	0.148112	0.0357895	-0.26728	0	0	-0.482112	0.322416	-0.132368	-0.00631552	-0.35605	0.0420447	1.31475	1.5708	0	0	-0.144774	-0.14221	-0.201486	1.13824	1.5708	0	0
21.29	-2.00918	1.41981	0.543442	0.797223	-0.376782	0.91741	0.411593	0.0479578	-0.0259845	0.512408	-0.329952	0	0	-0.238762	-0.173133	0.139306	0.0569947	-0.253027	0	0	-0.474471	0.314353	-0.1513	0.0122325	-0.351409	0.0732042	1.30752	1.5708	0	0	-0.175718	-0.136216	-0.238979	1.15725	1.5708	0	0
21.3	-2.00446	1.42032	0.5376	0.796552	-0.379044	0.917624	0.407979	0.0494635	-0.0246689	0.511873	-0.330422	0	0	-0.236452	-0.172595	0.138007	0.0679663	-0.255921	0	0	-0.476367	0.31368	-0.149744	0.00619607	-0.349795	0.0712434	1.30814	1.5708	0	0	-0.178159	-0.135296	-0.240999	1.15236	1.5708	0	0
21.31	-2.01447	1.42004	0.546468	0.795808	-0.381407	0.917666	0.406728	0.0504994	-0.0241135	0.511395	-0.328751	0	0	-0.228119	-0.171877	0.133294	0.0868264	-0.248494	0	0	-0.47011	0.310202	-0.0546246	-0.100363	-0.343981	-0.0572806	1.36195	1.5708	0	0	-0.104208	-0.149746	-0.131919	1.08939	1.5708	0	0
21.32	-1.88652	1.42441	0.429325	0.79657	-0.384544	0.919728	0.411236	0.0497647	-0.221726	0.562369	-0.332887	0	0	-0.242635	-0.179219	0.133036	0.0994173	-0.250078	0	0	-0.487965	0.319822	-0.0608192	-0.104063	-0.342692	-0.0583527	1.36303	1.5708	0	0	-0.106188	-0.14848	-0.135013	1.08713	1.5708	0	0
21.33	-2.00267	1.42172	0.533032	0.794284	-0.385951	0.918425	0.396409	0.0532742	-0.0258703	0.505378	-0.327778	0	0	-0.216579	-0.17185	0.127641	0.123633	-0.246135	0	0	-0.4727	0.308988	-0.0547873	-0.107635	-0.338176	-0.0581682	1.35783	1.5708	0	0	-0.110575	-0.148074	-0.138933	1.08244	1.5708	0	0
21.34	-1.99994	1.42257	0.529307	0.793468	-0.388162	0.918752	0.391924	0.0541291	-0.0275686	0.503019	-0.325813	0	0	-0.208281	-0.171923	0.124074	0.145802	-0.243617	0	0	-0.473857	0.308059	-0.0510272	-0.1155	-0.334463	-0.0643148	1.35923	1.5708	0	0	-0.111051	-0.14814	-0.13723	1.07812	1.5708	0	0
21.35	-1.99588	1.42489	0.524911	0.79282	-0.390276	0.919315	0.386256	0.0530977	-0.0309462	0.500037	-0.32442	0	0	-0.211109	-0.171901	0.124185	0.140922	-0.254877	0	0	-0.476002	0.306633	-0.080217	-0.0885549	-0.334747	-0.026073	1.33865	1.5708	0	0	-0.135803	-0.14355	-0.173268	1.09111	1.5708	0	0
21.36	-1.79059	1.43834	0.330689	0.794465	-0.393202	0.922793	0.377016	0.0437679	-0.238617	0.554436	-0.326989	0	0	-0.237265	-0.156168	0.109314	0.145147	-0.273361	0	0	-0.522705	0.314404	-0.193485	0.0163971	-0.335945	0.110116	1.29229	1.5708	0	0	-0.226383	-0.119543	-0.303234	1.16654	1.5708	0	0
21.37	-1.97962	1.42598	0.506522	0.791228	-0.394425	0.919937	0.376245	0.0564661	-0.0331889	0.495173	-0.32212	0	0	-0.17497	-0.173571	0.106091	0.231911	-0.231053	0	0	-0.477736	0.305064	-0.0499607	-0.126084	-0.325562	-0.0659109	1.35167	1.5708	0	0	-0.117048	-0.146881	-0.144179	1.06661	1.5708	0	0
